<mxfile host="app.diagrams.net" agent="Mozilla/5.0 (Windows NT 10.0; Win64; x64) AppleWebKit/537.36 (KHTML, like Gecko) Chrome/135.0.0.0 Safari/537.36" version="26.2.14">
  <diagram name="Page-1" id="WlNeoa_LyfkZodj_b_rL">
    <mxGraphModel dx="786" dy="465" grid="1" gridSize="10" guides="1" tooltips="1" connect="1" arrows="1" fold="1" page="1" pageScale="1" pageWidth="827" pageHeight="1169" math="0" shadow="0">
      <root>
        <mxCell id="0" />
        <mxCell id="1" parent="0" />
        <mxCell id="DHyPLUI4_UK5zwE4Fx0b-7" value="" style="rounded=1;arcSize=10;dashed=0;fillColor=none;gradientColor=none;strokeWidth=2;" vertex="1" parent="1">
          <mxGeometry x="230" y="290" width="800" height="350" as="geometry" />
        </mxCell>
        <mxCell id="Hho7az7k6USnW51aK7pY-1" value="" style="rounded=1;arcSize=10;dashed=0;fillColor=none;gradientColor=none;strokeWidth=2;" parent="1" vertex="1">
          <mxGeometry x="80" y="140" width="1080" height="630" as="geometry" />
        </mxCell>
        <mxCell id="Hho7az7k6USnW51aK7pY-2" value="" style="dashed=0;html=1;shape=mxgraph.aws3.cloud;fillColor=#F58536;gradientColor=none;dashed=0;" parent="1" vertex="1">
          <mxGeometry x="90" y="150" width="52" height="36" as="geometry" />
        </mxCell>
        <mxCell id="Hho7az7k6USnW51aK7pY-11" value="" style="rounded=1;arcSize=10;dashed=1;fillColor=none;gradientColor=none;dashPattern=1 1;strokeWidth=2;" parent="1" vertex="1">
          <mxGeometry x="130" y="180" width="990" height="550" as="geometry" />
        </mxCell>
        <mxCell id="Hho7az7k6USnW51aK7pY-12" value="us-east-1" style="text;strokeColor=none;align=center;fillColor=none;html=1;verticalAlign=middle;whiteSpace=wrap;rounded=0;" parent="1" vertex="1">
          <mxGeometry x="150" y="190" width="60" height="30" as="geometry" />
        </mxCell>
        <mxCell id="DHyPLUI4_UK5zwE4Fx0b-10" style="edgeStyle=orthogonalEdgeStyle;rounded=0;orthogonalLoop=1;jettySize=auto;html=1;" edge="1" parent="1" source="DHyPLUI4_UK5zwE4Fx0b-2" target="DHyPLUI4_UK5zwE4Fx0b-9">
          <mxGeometry relative="1" as="geometry" />
        </mxCell>
        <mxCell id="DHyPLUI4_UK5zwE4Fx0b-2" value="" style="outlineConnect=0;dashed=0;verticalLabelPosition=bottom;verticalAlign=top;align=center;html=1;shape=mxgraph.aws3.internet_gateway;fillColor=#F58534;gradientColor=none;" vertex="1" parent="1">
          <mxGeometry x="670" y="192" width="69" height="72" as="geometry" />
        </mxCell>
        <mxCell id="DHyPLUI4_UK5zwE4Fx0b-3" value="Actor" style="shape=umlActor;verticalLabelPosition=bottom;verticalAlign=top;html=1;outlineConnect=0;" vertex="1" parent="1">
          <mxGeometry x="689.5" width="30" height="50" as="geometry" />
        </mxCell>
        <mxCell id="DHyPLUI4_UK5zwE4Fx0b-4" style="edgeStyle=orthogonalEdgeStyle;rounded=0;orthogonalLoop=1;jettySize=auto;html=1;entryX=0.5;entryY=0;entryDx=0;entryDy=0;entryPerimeter=0;" edge="1" parent="1" source="DHyPLUI4_UK5zwE4Fx0b-3" target="DHyPLUI4_UK5zwE4Fx0b-2">
          <mxGeometry relative="1" as="geometry" />
        </mxCell>
        <mxCell id="DHyPLUI4_UK5zwE4Fx0b-5" value="" style="rounded=1;arcSize=10;dashed=0;fillColor=none;gradientColor=none;strokeWidth=2;" vertex="1" parent="1">
          <mxGeometry x="180" y="230" width="900" height="460" as="geometry" />
        </mxCell>
        <mxCell id="DHyPLUI4_UK5zwE4Fx0b-6" value="" style="dashed=0;html=1;shape=mxgraph.aws3.virtual_private_cloud;fillColor=#F58536;gradientColor=none;dashed=0;" vertex="1" parent="1">
          <mxGeometry x="200" y="210" width="52" height="36" as="geometry" />
        </mxCell>
        <mxCell id="DHyPLUI4_UK5zwE4Fx0b-8" value="" style="dashed=0;html=1;shape=mxgraph.aws3.instance;fillColor=#F58536;gradientColor=none;dashed=0;" vertex="1" parent="1">
          <mxGeometry x="250" y="270" width="40" height="41" as="geometry" />
        </mxCell>
        <mxCell id="DHyPLUI4_UK5zwE4Fx0b-9" value="React Upload Site&lt;div&gt;&lt;br&gt;&lt;/div&gt;" style="verticalLabelPosition=bottom;verticalAlign=top;html=1;shape=mxgraph.basic.rect;fillColor2=none;strokeWidth=1;size=20;indent=5;" vertex="1" parent="1">
          <mxGeometry x="644.5" y="370" width="120" height="60" as="geometry" />
        </mxCell>
        <mxCell id="DHyPLUI4_UK5zwE4Fx0b-14" style="edgeStyle=orthogonalEdgeStyle;rounded=0;orthogonalLoop=1;jettySize=auto;html=1;entryX=0.502;entryY=0.088;entryDx=0;entryDy=0;entryPerimeter=0;" edge="1" parent="1" source="DHyPLUI4_UK5zwE4Fx0b-9" target="DHyPLUI4_UK5zwE4Fx0b-11">
          <mxGeometry relative="1" as="geometry" />
        </mxCell>
        <mxCell id="DHyPLUI4_UK5zwE4Fx0b-11" value="API Gateway" style="points=[];aspect=fixed;html=1;align=center;shadow=0;dashed=0;fillColor=#FF6A00;strokeColor=none;shape=mxgraph.alibaba_cloud.apigateway;verticalAlign=top;labelPosition=center;verticalLabelPosition=bottom;" vertex="1" parent="1">
          <mxGeometry x="666.4" y="511" width="61.13" height="59" as="geometry" />
        </mxCell>
      </root>
    </mxGraphModel>
  </diagram>
</mxfile>
